<?xml version="1.0" encoding="utf-8"?>
<!-- Generator: Adobe Illustrator 16.0.0, SVG Export Plug-In . SVG Version: 6.00 Build 0)  -->
<!DOCTYPE svg PUBLIC "-//W3C//DTD SVG 1.1//EN" "http://www.w3.org/Graphics/SVG/1.1/DTD/svg11.dtd">
<svg version="1.1" id="Capa_1" xmlns="http://www.w3.org/2000/svg" xmlns:xlink="http://www.w3.org/1999/xlink" x="0px" y="0px"
	 width="111.94px" height="147.761px" viewBox="0 0 111.94 147.761" enable-background="new 0 0 111.94 147.761"
	 xml:space="preserve">
<g>
	<g>
		
			<path fill="none" stroke="#030104" stroke-width="2.3014" stroke-linecap="round" stroke-linejoin="round" stroke-miterlimit="10" d="
			M19.941,70.475v25.989c0,20.985,16.086,37.922,35.791,37.922c19.809,0,35.795-17.045,35.795-37.922V70.475"/>
		<circle fill="#030104" cx="35.349" cy="73.959" r="4.322"/>
		<circle fill="#030104" cx="75.607" cy="75.804" r="4.322"/>
		
			<path fill="none" stroke="#030104" stroke-width="2.3014" stroke-linecap="round" stroke-linejoin="round" stroke-miterlimit="10" d="
			M62.871,90.552c-1.592,2.274-4.321,3.753-7.392,3.753s-5.8-1.479-7.392-3.866"/>
		
			<line fill="none" stroke="#030104" stroke-width="2.3014" stroke-linecap="round" stroke-linejoin="round" stroke-miterlimit="10" x1="28.235" y1="120.625" x2="28.235" y2="138.276"/>
		
			<line fill="none" stroke="#030104" stroke-width="2.3014" stroke-linecap="round" stroke-linejoin="round" stroke-miterlimit="10" x1="82.724" y1="122.47" x2="82.724" y2="138.276"/>
		
			<path fill="none" stroke="#030104" stroke-width="2.3014" stroke-linecap="round" stroke-linejoin="round" stroke-miterlimit="10" d="
			M15.707,66.917c2.616-1.82,4.323-4.776,4.323-8.188"/>
		
			<line fill="none" stroke="#030104" stroke-width="2.3014" stroke-linecap="round" stroke-linejoin="round" stroke-miterlimit="10" x1="19.941" y1="70.376" x2="19.941" y2="44.448"/>
		
			<path fill="none" stroke="#030104" stroke-width="2.3014" stroke-linecap="round" stroke-linejoin="round" stroke-miterlimit="10" d="
			M95.849,66.917c-2.615-1.82-4.32-4.776-4.32-8.188"/>
		
			<line fill="none" stroke="#030104" stroke-width="2.3014" stroke-linecap="round" stroke-linejoin="round" stroke-miterlimit="10" x1="91.527" y1="69.678" x2="91.527" y2="43.75"/>
		<g>
			
				<path fill="none" stroke="#030104" stroke-width="2.3014" stroke-linecap="round" stroke-linejoin="round" stroke-miterlimit="10" d="
				M31.611,17.025c0-4.723,4.832-8.613,11.568-9.91"/>
			
				<path fill="none" stroke="#030104" stroke-width="2.3014" stroke-linecap="round" stroke-linejoin="round" stroke-miterlimit="10" d="
				M53.723,9.524c-1.024,1.76-4.102,2.686-6.884,2.037c-2.779-0.648-4.246-2.594-3.222-4.354"/>
			
				<path fill="none" stroke="#030104" stroke-width="2.3014" stroke-linecap="round" stroke-linejoin="round" stroke-miterlimit="10" d="
				M65.145,14.062c-4.831,0.185-9.372-1.574-11.13-4.538"/>
		</g>
		<g>
			
				<path fill="none" stroke="#030104" stroke-width="2.3014" stroke-linecap="round" stroke-linejoin="round" stroke-miterlimit="10" d="
				M29.908,29.713c-6.369,0-11.601-4.259-11.601-9.446c0-4.261,3.412-7.873,8.188-9.077"/>
			
				<path fill="none" stroke="#030104" stroke-width="2.3014" stroke-linecap="round" stroke-linejoin="round" stroke-miterlimit="10" d="
				M32.637,13.136c-0.569,1.389-2.502,2.13-4.208,1.573c-1.705-0.463-2.617-2.038-1.935-3.426"/>
			
				<path fill="none" stroke="#030104" stroke-width="2.3014" stroke-linecap="round" stroke-linejoin="round" stroke-miterlimit="10" d="
				M32.864,13.136"/>
			
				<line fill="none" stroke="#030104" stroke-width="2.3014" stroke-linecap="round" stroke-linejoin="round" stroke-miterlimit="10" x1="29.908" y1="29.713" x2="66.98" y2="29.713"/>
		</g>
		<g>
			
				<path fill="none" stroke="#030104" stroke-width="2.3014" stroke-linecap="round" stroke-linejoin="round" stroke-miterlimit="10" d="
				M67.193,22.768c-1.365-1.39-2.16-3.149-2.16-5.094c0-3.705,3.068-6.854,7.162-7.873"/>
			
				<path fill="none" stroke="#030104" stroke-width="2.3014" stroke-linecap="round" stroke-linejoin="round" stroke-miterlimit="10" d="
				M74.242,13.228c-1.704-0.463-2.614-2.038-1.931-3.427"/>
		</g>
		
			<path fill="none" stroke="#030104" stroke-width="2.3014" stroke-linecap="round" stroke-linejoin="round" stroke-miterlimit="10" d="
			M89.935,36.7c1.025,2.273,1.592,4.662,1.592,7.278"/>
		
			<path fill="none" stroke="#030104" stroke-width="2.3014" stroke-linecap="round" stroke-linejoin="round" stroke-miterlimit="10" d="
			M36.827,29.713c-9.665,0-17.511,6.391-17.511,14.265"/>
		
			<line fill="none" stroke="#030104" stroke-width="2.3014" stroke-linecap="round" stroke-linejoin="round" stroke-miterlimit="10" x1="89.935" y1="36.7" x2="87.094" y2="40.68"/>
		
			<path fill="none" stroke="#030104" stroke-width="2.3014" stroke-linecap="round" stroke-linejoin="round" stroke-miterlimit="10" d="
			M55.591,24.898c-6.255-0.37-11.029-4.908-10.461-10.003"/>
		
			<path fill="none" stroke="#030104" stroke-width="2.3014" stroke-linecap="round" stroke-linejoin="round" stroke-miterlimit="10" d="
			M39.784,25.824c-4.889-0.278-8.641-3.798-8.187-7.779"/>
		
			<path fill="none" stroke="#030104" stroke-width="2.3014" stroke-linecap="round" stroke-linejoin="round" stroke-miterlimit="10" d="
			M80.498,25.824c-4.891-0.278-8.644-3.798-8.187-7.779"/>
		
			<line fill="none" stroke="#030104" stroke-width="2.3014" stroke-linecap="round" stroke-linejoin="round" stroke-miterlimit="10" x1="14.108" y1="66.834" x2="14.108" y2="39.202"/>
		
			<line fill="none" stroke="#030104" stroke-width="2.3014" stroke-linecap="round" stroke-linejoin="round" stroke-miterlimit="10" x1="96.96" y1="66.834" x2="96.96" y2="39.202"/>
		
			<path fill="none" stroke="#030104" stroke-width="2.3014" stroke-linecap="round" stroke-linejoin="round" stroke-miterlimit="10" d="
			M72.511,13.32c14.217,3.52,24.565,14.172,24.565,26.86"/>
		
			<path fill="none" stroke="#030104" stroke-width="2.3014" stroke-linecap="round" stroke-linejoin="round" stroke-miterlimit="10" d="
			M19.82,24.898c-3.436,3.444-5.712,9.019-5.712,15.282"/>
		
			<path fill="none" stroke="#030104" stroke-width="2.2691" stroke-linecap="round" stroke-linejoin="round" stroke-miterlimit="10" d="
			M66.054,29.713c11.647,0,21.04,4.632,21.04,10.374c0,0.371,0,0.741-0.19,1.019"/>
		
			<path fill="none" stroke="#030104" stroke-width="2.3014" stroke-linecap="round" stroke-linejoin="round" stroke-miterlimit="10" d="
			M19.941,66.006c-4.029,0-7.359,2.184-7.359,4.827v15.285c0,2.642,3.33,4.825,7.359,4.825"/>
		
			<path fill="none" stroke="#030104" stroke-width="2.3014" stroke-linecap="round" stroke-linejoin="round" stroke-miterlimit="10" d="
			M91.702,90.716c3.938,0,7.194-2.161,7.194-4.776V70.815c0-2.615-3.256-4.775-7.194-4.775"/>
		
			<path fill="none" stroke="#030104" stroke-width="2.3014" stroke-linecap="round" stroke-linejoin="round" stroke-miterlimit="10" d="
			M25.912,63.35c2.274-2.502,5.571-4.094,9.211-4.094c2.844,0,5.458,0.909,7.504,2.501"/>
		
			<path fill="none" stroke="#030104" stroke-width="2.3014" stroke-linecap="round" stroke-linejoin="round" stroke-miterlimit="10" d="
			M84.59,63.35c-2.274-2.502-5.571-4.094-9.211-4.094c-2.842,0-5.459,0.909-7.506,2.501"/>
	</g>
	
		<path fill="none" stroke="#030104" stroke-width="2.3014" stroke-linecap="round" stroke-linejoin="round" stroke-miterlimit="10" d="
		M68.879,109.092c-3.519,3.564-9.328,5.625-14.222,5.625c-4.895,0-10.705-2.061-14.225-5.625H68.879z"/>
</g>
</svg>
